<svg xmlns="http://www.w3.org/2000/svg" viewBox="0 0 64 64" role="img" aria-labelledby="title">
<title id="title">PrintProfit</title>
<defs>
  <linearGradient id="bg" x1="0" y1="0" x2="1" y2="1">
    <stop stop-color="#172630"/>
    <stop offset="1" stop-color="#061018"/>
  </linearGradient>
  <linearGradient id="orange" x1="0" y1="0" x2="1" y2="1">
    <stop stop-color="#ffad59"/>
    <stop offset=".6" stop-color="#ff8720"/>
    <stop offset="1" stop-color="#e95d00"/>
  </linearGradient>
</defs>
<rect width="64" height="64" rx="15" fill="url(#bg)"/>
<path d="M12 20h40M32 20v29M19 22l-7 17m33-17 7 17M8 40h9m30 0h9M25 51h14" fill="none" stroke="url(#orange)" stroke-width="4" stroke-linecap="round" stroke-linejoin="round"/>
<rect x="26" y="13" width="12" height="12" rx="3" fill="#fff"/>
<path d="M5 40c2 8 7 11 12 11s10-3 12-11m6 0c2 8 7 11 12 11s10-3 12-11" fill="url(#orange)" stroke="#fff" stroke-width="2"/>
</svg>