<svg xmlns="http://www.w3.org/2000/svg" viewBox="0 0 512 512" role="img" aria-labelledby="title desc"><title id="title">PrintProfit app icon</title><desc id="desc">Blue PrintProfit app tile with the balance scale and PP mark.</desc>
<defs><linearGradient id="tile" x1="0" y1="0" x2="1" y2="1"><stop offset="0" stop-color="#19D8FF"/><stop offset=".48" stop-color="#009FEF"/><stop offset="1" stop-color="#0066D6"/></linearGradient><linearGradient id="shine" x1="0" y1="0" x2="0" y2="1"><stop offset="0" stop-color="#fff" stop-opacity=".26"/><stop offset="1" stop-color="#fff" stop-opacity="0"/></linearGradient><filter id="shadow" x="-20%" y="-20%" width="140%" height="140%"><feDropShadow dx="0" dy="10" stdDeviation="12" flood-opacity=".34"/></filter></defs>
<rect x="12" y="12" width="488" height="488" rx="104" fill="url(#tile)"/><rect x="12" y="12" width="488" height="210" rx="104" fill="url(#shine)"/><g filter="url(#shadow)" stroke="#F5F7FA" stroke-linecap="round" stroke-linejoin="round" fill="none" stroke-width="18"><path d="M98 142h316"/><path d="M256 142v186"/><path d="M151 155 104 250m257-95 47 95"/><path d="M83 253h42m282 0h42"/></g><rect x="221" y="98" width="70" height="68" rx="12" fill="#F5F7FA"/><path d="M256 166v22" stroke="#F5F7FA" stroke-width="18" stroke-linecap="round"/><path d="M74 255c6 41 31 62 61 62s54-21 60-62M317 255c6 41 31 62 61 62s55-21 61-62" fill="#19D8FF" stroke="#F5F7FA" stroke-width="8" stroke-linejoin="round"/><path d="M180 358h152v17a12 12 0 0 1-12 12h-128a12 12 0 0 1-12-12Z" fill="#F5F7FA"/><text x="256" y="468" text-anchor="middle" font-family="Inter,Segoe UI,Arial,sans-serif" font-size="76" font-weight="900" letter-spacing="10" fill="#F5F7FA">PP</text></svg>